<svg xmlns="http://www.w3.org/2000/svg" xmlns:xlink="http://www.w3.org/1999/xlink" width="1366" zoomAndPan="magnify" viewBox="0 0 1024.5 576" height="768" preserveAspectRatio="xMidYMid meet" version="1.0"><defs><clipPath id="b54f9e3bd0"><path d="M 0 0.140625 L 1024 0.140625 L 1024 575.859375 L 0 575.859375 Z M 0 0.140625 " clip-rule="nonzero"/></clipPath><clipPath id="2835cc6b33"><path d="M 0 540.25 L 1024 540.25 L 1024 575.859375 L 0 575.859375 Z M 0 540.25 " clip-rule="nonzero"/></clipPath><clipPath id="0433f123bc"><path d="M 43.71875 557.617188 L 45.207031 557.617188 L 45.207031 561.363281 L 43.71875 561.363281 Z M 43.71875 557.617188 " clip-rule="nonzero"/></clipPath><clipPath id="b33deb16dd"><path d="M 33.882812 519.203125 C 33.652344 522.023438 36.332031 524.753906 36.457031 525.082031 C 37.222656 527.09375 37.1875 530.125 37.835938 532.246094 C 38.183594 533.375 38.621094 534.941406 39.464844 535.820312 C 40.261719 536.652344 40.441406 535.105469 40.863281 535.484375 C 41.800781 536.316406 41.359375 538.292969 42.675781 538.925781 C 43.945312 539.535156 44.371094 537.738281 45.203125 538.921875 C 47.296875 541.902344 48.769531 551.046875 48.234375 551.703125 C 46.875 553.359375 38.046875 551.386719 39.726562 556.277344 C 39.976562 557.003906 41.253906 560.242188 41.871094 560.914062 C 42.839844 561.976562 49.441406 560.96875 50.097656 559.714844 C 50.5625 558.824219 49.449219 556.375 49.511719 556.324219 C 49.699219 556.191406 51.035156 556.570312 52.382812 556.4375 C 53.871094 556.289062 54.828125 556.085938 55.390625 555.785156 C 55.40625 555.777344 55.964844 558.855469 56.585938 559.507812 C 57.386719 560.34375 64.105469 560.332031 65.125 559.03125 C 66.773438 556.929688 63.507812 551.660156 63.277344 551.066406 C 63.160156 550.769531 63.390625 548.226562 63.511719 546.828125 C 63.851562 542.804688 63.804688 538.921875 63.652344 534.914062 C 63.644531 534.699219 64.175781 534.878906 64.300781 534.550781 C 64.605469 533.753906 64.351562 532.507812 64.199219 531.703125 C 63.550781 528.25 61.589844 524.59375 60.808594 521.605469 C 60.597656 520.796875 60.929688 519.480469 61.222656 517.925781 C 61.496094 516.46875 61.234375 510.925781 59.792969 509.710938 C 59.75 509.671875 59.042969 511.507812 57.507812 512.332031 C 55.789062 513.257812 53.632812 512.480469 52.207031 511.382812 C 49.226562 509.09375 47.84375 505.40625 45.519531 502.558594 C 44.578125 501.402344 43.109375 500.070312 41.597656 501.121094 C 40.363281 501.976562 40.027344 503.488281 40.40625 504.882812 C 41.445312 508.722656 43.738281 512.640625 42.773438 516.765625 C 42.238281 519.042969 39.101562 521.582031 36.675781 520.851562 C 35.882812 520.617188 34.421875 519.828125 33.882812 519.203125 Z M 33.882812 519.203125 " clip-rule="nonzero"/></clipPath><clipPath id="a22a31e847"><path d="M 59 556.421875 L 60 556.421875 L 60 560.464844 L 59 560.464844 Z M 59 556.421875 " clip-rule="nonzero"/></clipPath><clipPath id="19749197f5"><path d="M 33.882812 519.203125 C 33.652344 522.023438 36.332031 524.753906 36.457031 525.082031 C 37.222656 527.09375 37.1875 530.125 37.835938 532.246094 C 38.183594 533.375 38.621094 534.941406 39.464844 535.820312 C 40.261719 536.652344 40.441406 535.105469 40.863281 535.484375 C 41.800781 536.316406 41.359375 538.292969 42.675781 538.925781 C 43.945312 539.535156 44.371094 537.738281 45.203125 538.921875 C 47.296875 541.902344 48.769531 551.046875 48.234375 551.703125 C 46.875 553.359375 38.046875 551.386719 39.726562 556.277344 C 39.976562 557.003906 41.253906 560.242188 41.871094 560.914062 C 42.839844 561.976562 49.441406 560.96875 50.097656 559.714844 C 50.5625 558.824219 49.449219 556.375 49.511719 556.324219 C 49.699219 556.191406 51.035156 556.570312 52.382812 556.4375 C 53.871094 556.289062 54.828125 556.085938 55.390625 555.785156 C 55.40625 555.777344 55.964844 558.855469 56.585938 559.507812 C 57.386719 560.34375 64.105469 560.332031 65.125 559.03125 C 66.773438 556.929688 63.507812 551.660156 63.277344 551.066406 C 63.160156 550.769531 63.390625 548.226562 63.511719 546.828125 C 63.851562 542.804688 63.804688 538.921875 63.652344 534.914062 C 63.644531 534.699219 64.175781 534.878906 64.300781 534.550781 C 64.605469 533.753906 64.351562 532.507812 64.199219 531.703125 C 63.550781 528.25 61.589844 524.59375 60.808594 521.605469 C 60.597656 520.796875 60.929688 519.480469 61.222656 517.925781 C 61.496094 516.46875 61.234375 510.925781 59.792969 509.710938 C 59.75 509.671875 59.042969 511.507812 57.507812 512.332031 C 55.789062 513.257812 53.632812 512.480469 52.207031 511.382812 C 49.226562 509.09375 47.84375 505.40625 45.519531 502.558594 C 44.578125 501.402344 43.109375 500.070312 41.597656 501.121094 C 40.363281 501.976562 40.027344 503.488281 40.40625 504.882812 C 41.445312 508.722656 43.738281 512.640625 42.773438 516.765625 C 42.238281 519.042969 39.101562 521.582031 36.675781 520.851562 C 35.882812 520.617188 34.421875 519.828125 33.882812 519.203125 Z M 33.882812 519.203125 " clip-rule="nonzero"/></clipPath><clipPath id="9129a88a7c"><path d="M 46.695312 557.019531 L 48.183594 557.019531 L 48.183594 561.210938 L 46.695312 561.210938 Z M 46.695312 557.019531 " clip-rule="nonzero"/></clipPath><clipPath id="e4c88ddbff"><path d="M 33.882812 519.203125 C 33.652344 522.023438 36.332031 524.753906 36.457031 525.082031 C 37.222656 527.09375 37.1875 530.125 37.835938 532.246094 C 38.183594 533.375 38.621094 534.941406 39.464844 535.820312 C 40.261719 536.652344 40.441406 535.105469 40.863281 535.484375 C 41.800781 536.316406 41.359375 538.292969 42.675781 538.925781 C 43.945312 539.535156 44.371094 537.738281 45.203125 538.921875 C 47.296875 541.902344 48.769531 551.046875 48.234375 551.703125 C 46.875 553.359375 38.046875 551.386719 39.726562 556.277344 C 39.976562 557.003906 41.253906 560.242188 41.871094 560.914062 C 42.839844 561.976562 49.441406 560.96875 50.097656 559.714844 C 50.5625 558.824219 49.449219 556.375 49.511719 556.324219 C 49.699219 556.191406 51.035156 556.570312 52.382812 556.4375 C 53.871094 556.289062 54.828125 556.085938 55.390625 555.785156 C 55.40625 555.777344 55.964844 558.855469 56.585938 559.507812 C 57.386719 560.34375 64.105469 560.332031 65.125 559.03125 C 66.773438 556.929688 63.507812 551.660156 63.277344 551.066406 C 63.160156 550.769531 63.390625 548.226562 63.511719 546.828125 C 63.851562 542.804688 63.804688 538.921875 63.652344 534.914062 C 63.644531 534.699219 64.175781 534.878906 64.300781 534.550781 C 64.605469 533.753906 64.351562 532.507812 64.199219 531.703125 C 63.550781 528.25 61.589844 524.59375 60.808594 521.605469 C 60.597656 520.796875 60.929688 519.480469 61.222656 517.925781 C 61.496094 516.46875 61.234375 510.925781 59.792969 509.710938 C 59.75 509.671875 59.042969 511.507812 57.507812 512.332031 C 55.789062 513.257812 53.632812 512.480469 52.207031 511.382812 C 49.226562 509.09375 47.84375 505.40625 45.519531 502.558594 C 44.578125 501.402344 43.109375 500.070312 41.597656 501.121094 C 40.363281 501.976562 40.027344 503.488281 40.40625 504.882812 C 41.445312 508.722656 43.738281 512.640625 42.773438 516.765625 C 42.238281 519.042969 39.101562 521.582031 36.675781 520.851562 C 35.882812 520.617188 34.421875 519.828125 33.882812 519.203125 Z M 33.882812 519.203125 " clip-rule="nonzero"/></clipPath><clipPath id="64a009459a"><path d="M 61.867188 556.121094 L 63.054688 556.121094 L 63.054688 560.3125 L 61.867188 560.3125 Z M 61.867188 556.121094 " clip-rule="nonzero"/></clipPath><clipPath id="fb0c935ac0"><path d="M 33.882812 519.203125 C 33.652344 522.023438 36.332031 524.753906 36.457031 525.082031 C 37.222656 527.09375 37.1875 530.125 37.835938 532.246094 C 38.183594 533.375 38.621094 534.941406 39.464844 535.820312 C 40.261719 536.652344 40.441406 535.105469 40.863281 535.484375 C 41.800781 536.316406 41.359375 538.292969 42.675781 538.925781 C 43.945312 539.535156 44.371094 537.738281 45.203125 538.921875 C 47.296875 541.902344 48.769531 551.046875 48.234375 551.703125 C 46.875 553.359375 38.046875 551.386719 39.726562 556.277344 C 39.976562 557.003906 41.253906 560.242188 41.871094 560.914062 C 42.839844 561.976562 49.441406 560.96875 50.097656 559.714844 C 50.5625 558.824219 49.449219 556.375 49.511719 556.324219 C 49.699219 556.191406 51.035156 556.570312 52.382812 556.4375 C 53.871094 556.289062 54.828125 556.085938 55.390625 555.785156 C 55.40625 555.777344 55.964844 558.855469 56.585938 559.507812 C 57.386719 560.34375 64.105469 560.332031 65.125 559.03125 C 66.773438 556.929688 63.507812 551.660156 63.277344 551.066406 C 63.160156 550.769531 63.390625 548.226562 63.511719 546.828125 C 63.851562 542.804688 63.804688 538.921875 63.652344 534.914062 C 63.644531 534.699219 64.175781 534.878906 64.300781 534.550781 C 64.605469 533.753906 64.351562 532.507812 64.199219 531.703125 C 63.550781 528.25 61.589844 524.59375 60.808594 521.605469 C 60.597656 520.796875 60.929688 519.480469 61.222656 517.925781 C 61.496094 516.46875 61.234375 510.925781 59.792969 509.710938 C 59.75 509.671875 59.042969 511.507812 57.507812 512.332031 C 55.789062 513.257812 53.632812 512.480469 52.207031 511.382812 C 49.226562 509.09375 47.84375 505.40625 45.519531 502.558594 C 44.578125 501.402344 43.109375 500.070312 41.597656 501.121094 C 40.363281 501.976562 40.027344 503.488281 40.40625 504.882812 C 41.445312 508.722656 43.738281 512.640625 42.773438 516.765625 C 42.238281 519.042969 39.101562 521.582031 36.675781 520.851562 C 35.882812 520.617188 34.421875 519.828125 33.882812 519.203125 Z M 33.882812 519.203125 " clip-rule="nonzero"/></clipPath></defs><g clip-path="url(#b54f9e3bd0)"><path fill="#ffffff" d="M 0 0.140625 L 1024 0.140625 L 1024 575.859375 L 0 575.859375 Z M 0 0.140625 " fill-opacity="1" fill-rule="nonzero"/><path fill="#fff7d7" d="M 0 0.140625 L 1024 0.140625 L 1024 575.859375 L 0 575.859375 Z M 0 0.140625 " fill-opacity="1" fill-rule="nonzero"/></g><g clip-path="url(#2835cc6b33)"><path fill="#8b5312" d="M -64.945312 540.25 L 1132.285156 540.25 L 1132.285156 575.859375 L -64.945312 575.859375 Z M -64.945312 540.25 " fill-opacity="1" fill-rule="nonzero"/></g><path fill="#fcecde" d="M 33.882812 519.203125 C 33.652344 522.023438 36.332031 524.753906 36.457031 525.082031 C 37.222656 527.09375 37.1875 530.125 37.835938 532.246094 C 38.183594 533.375 38.621094 534.941406 39.464844 535.820312 C 40.261719 536.652344 40.441406 535.105469 40.863281 535.484375 C 41.800781 536.316406 41.359375 538.292969 42.675781 538.925781 C 43.945312 539.535156 44.371094 537.738281 45.203125 538.921875 C 47.296875 541.902344 48.769531 551.046875 48.234375 551.703125 C 46.875 553.359375 38.046875 551.386719 39.726562 556.277344 C 39.976562 557.003906 41.253906 560.242188 41.871094 560.914062 C 42.839844 561.976562 49.441406 560.96875 50.097656 559.714844 C 50.5625 558.824219 49.449219 556.375 49.511719 556.324219 C 49.699219 556.191406 51.035156 556.570312 52.382812 556.4375 C 53.871094 556.289062 54.828125 556.085938 55.390625 555.785156 C 55.40625 555.777344 55.964844 558.855469 56.585938 559.507812 C 57.386719 560.34375 64.105469 560.332031 65.125 559.03125 C 66.773438 556.929688 63.507812 551.660156 63.277344 551.066406 C 63.160156 550.769531 63.390625 548.226562 63.511719 546.828125 C 63.851562 542.804688 63.804688 538.921875 63.652344 534.914062 C 63.644531 534.699219 64.175781 534.878906 64.300781 534.550781 C 64.605469 533.753906 64.351562 532.507812 64.199219 531.703125 C 63.550781 528.25 61.589844 524.59375 60.808594 521.605469 C 60.597656 520.796875 60.929688 519.480469 61.222656 517.925781 C 61.496094 516.46875 61.234375 510.925781 59.792969 509.710938 C 59.75 509.671875 59.042969 511.507812 57.507812 512.332031 C 55.789062 513.257812 53.632812 512.480469 52.207031 511.382812 C 49.226562 509.09375 47.84375 505.40625 45.519531 502.558594 C 44.578125 501.402344 43.109375 500.070312 41.597656 501.121094 C 40.363281 501.976562 40.027344 503.488281 40.40625 504.882812 C 41.445312 508.722656 43.738281 512.640625 42.773438 516.765625 C 42.238281 519.042969 39.101562 521.582031 36.675781 520.851562 C 35.882812 520.617188 34.421875 519.828125 33.882812 519.203125 " fill-opacity="1" fill-rule="evenodd"/><g clip-path="url(#0433f123bc)"><g clip-path="url(#b33deb16dd)"><path fill="#ead2c1" d="M 44.75 561.03125 L 44.746094 561.03125 L 44.753906 561.027344 Z M 44.738281 561.03125 C 44.71875 561.035156 44.703125 561.039062 44.6875 561.046875 C 44.703125 561.039062 44.71875 561.035156 44.738281 561.03125 Z M 44.550781 561.167969 L 44.558594 561.066406 C 44.570312 560.871094 44.558594 560.671875 44.539062 560.480469 C 44.46875 559.675781 44.308594 558.800781 43.882812 558.105469 C 43.808594 557.984375 43.84375 557.824219 43.964844 557.75 C 44.085938 557.675781 44.242188 557.710938 44.316406 557.832031 C 44.785156 558.59375 44.972656 559.554688 45.050781 560.433594 C 45.070312 560.652344 45.085938 560.875 45.070312 561.097656 C 45.070312 561.105469 45.066406 561.234375 45.050781 561.304688 C 45.035156 561.363281 45.015625 561.402344 45 561.429688 C 44.9375 561.515625 44.859375 561.542969 44.789062 561.546875 C 44.648438 561.550781 44.53125 561.441406 44.523438 561.296875 C 44.523438 561.25 44.53125 561.207031 44.550781 561.167969 " fill-opacity="1" fill-rule="evenodd"/></g></g><g clip-path="url(#a22a31e847)"><g clip-path="url(#19749197f5)"><path fill="#ead2c1" d="M 59.59375 559.875 L 59.601562 559.875 Z M 59.585938 559.875 C 59.566406 559.875 59.550781 559.878906 59.535156 559.882812 C 59.550781 559.878906 59.566406 559.875 59.585938 559.875 Z M 59.386719 559.992188 L 59.40625 559.886719 C 59.4375 559.695312 59.445312 559.496094 59.449219 559.304688 C 59.464844 558.5 59.398438 557.609375 59.054688 556.871094 C 58.992188 556.742188 59.046875 556.585938 59.175781 556.527344 C 59.300781 556.464844 59.457031 556.519531 59.515625 556.648438 C 59.894531 557.457031 59.980469 558.429688 59.960938 559.316406 C 59.957031 559.535156 59.949219 559.757812 59.910156 559.976562 C 59.910156 559.988281 59.890625 560.113281 59.867188 560.183594 C 59.847656 560.234375 59.820312 560.277344 59.800781 560.296875 C 59.730469 560.378906 59.652344 560.394531 59.582031 560.390625 C 59.441406 560.382812 59.332031 560.257812 59.34375 560.113281 C 59.347656 560.070312 59.363281 560.027344 59.386719 559.992188 " fill-opacity="1" fill-rule="evenodd"/></g></g><g clip-path="url(#9129a88a7c)"><g clip-path="url(#e4c88ddbff)"><path fill="#ead2c1" d="M 46.839844 557.53125 C 46.886719 557.574219 46.933594 557.585938 46.957031 557.589844 C 46.914062 557.582031 46.871094 557.5625 46.839844 557.53125 Z M 47.75 560.601562 C 47.730469 560.617188 47.703125 560.640625 47.683594 560.679688 C 47.703125 560.648438 47.726562 560.621094 47.75 560.601562 Z M 48.15625 560.765625 C 48.164062 560.820312 48.15625 560.878906 48.128906 560.929688 C 48.074219 561.042969 47.992188 561.0625 47.957031 561.070312 C 47.890625 561.085938 47.828125 561.074219 47.773438 561.042969 C 47.734375 561.019531 47.691406 560.984375 47.664062 560.914062 C 47.65625 560.898438 47.644531 560.871094 47.644531 560.835938 C 47.640625 560.816406 47.644531 560.753906 47.644531 560.726562 C 47.644531 560.664062 47.644531 560.605469 47.640625 560.542969 C 47.632812 560.351562 47.617188 560.160156 47.597656 559.96875 C 47.542969 559.433594 47.453125 558.894531 47.265625 558.386719 C 47.183594 558.167969 47.09375 557.953125 46.980469 557.75 C 46.945312 557.6875 46.90625 557.632812 46.867188 557.574219 C 46.851562 557.554688 46.78125 557.453125 46.777344 557.445312 C 46.710938 557.304688 46.78125 557.207031 46.804688 557.175781 C 46.847656 557.121094 46.90625 557.082031 46.988281 557.078125 C 47.007812 557.078125 47.097656 557.058594 47.191406 557.152344 C 47.203125 557.167969 47.214844 557.183594 47.226562 557.199219 C 47.238281 557.214844 47.273438 557.257812 47.28125 557.269531 C 47.332031 557.339844 47.382812 557.414062 47.425781 557.492188 C 47.554688 557.722656 47.65625 557.960938 47.746094 558.207031 C 47.945312 558.757812 48.050781 559.339844 48.109375 559.917969 C 48.128906 560.117188 48.144531 560.320312 48.152344 560.523438 C 48.15625 560.589844 48.15625 560.65625 48.160156 560.722656 C 48.160156 560.730469 48.15625 560.75 48.15625 560.765625 " fill-opacity="1" fill-rule="evenodd"/></g></g><g clip-path="url(#64a009459a)"><g clip-path="url(#fb0c935ac0)"><path fill="#ead2c1" d="M 62.054688 556.628906 C 62.097656 556.679688 62.140625 556.695312 62.164062 556.699219 C 62.125 556.6875 62.085938 556.664062 62.054688 556.628906 Z M 62.628906 559.785156 C 62.605469 559.796875 62.578125 559.816406 62.550781 559.851562 C 62.574219 559.824219 62.597656 559.800781 62.628906 559.785156 Z M 63.011719 559.992188 C 63.015625 560.046875 63 560.101562 62.96875 560.152344 C 62.898438 560.257812 62.816406 560.265625 62.78125 560.269531 C 62.714844 560.277344 62.652344 560.261719 62.601562 560.222656 C 62.566406 560.195312 62.527344 560.15625 62.503906 560.085938 C 62.5 560.066406 62.492188 560.039062 62.492188 560.003906 C 62.492188 559.984375 62.503906 559.921875 62.507812 559.894531 C 62.515625 559.832031 62.519531 559.773438 62.523438 559.710938 C 62.539062 559.519531 62.542969 559.328125 62.542969 559.136719 C 62.546875 558.597656 62.515625 558.050781 62.386719 557.527344 C 62.332031 557.300781 62.261719 557.074219 62.171875 556.859375 C 62.144531 556.796875 62.109375 556.734375 62.078125 556.675781 C 62.066406 556.652344 62.007812 556.546875 62.003906 556.539062 C 61.953125 556.386719 62.035156 556.300781 62.0625 556.273438 C 62.109375 556.222656 62.171875 556.191406 62.253906 556.195312 C 62.273438 556.195312 62.363281 556.1875 62.445312 556.292969 C 62.457031 556.308594 62.46875 556.324219 62.476562 556.339844 C 62.488281 556.359375 62.515625 556.40625 62.519531 556.417969 C 62.566406 556.496094 62.609375 556.574219 62.640625 556.65625 C 62.746094 556.898438 62.820312 557.148438 62.882812 557.402344 C 63.023438 557.96875 63.0625 558.558594 63.054688 559.144531 C 63.054688 559.34375 63.050781 559.546875 63.035156 559.746094 C 63.03125 559.8125 63.023438 559.882812 63.019531 559.949219 C 63.019531 559.957031 63.015625 559.976562 63.011719 559.992188 " fill-opacity="1" fill-rule="evenodd"/></g></g><path fill="#fdc175" d="M 42.808594 498.957031 C 43.078125 498.847656 43.539062 498.679688 43.921875 498.585938 C 44.640625 498.417969 45.40625 498.351562 45.394531 498.265625 C 45.363281 497.992188 45.492188 494.761719 45.613281 493.632812 C 45.898438 490.960938 47.808594 485.589844 51.035156 486.621094 C 54.335938 487.675781 56.328125 492.203125 57.101562 494.148438 C 58.226562 496.960938 58.597656 500.039062 58.753906 503.066406 C 58.808594 504.164062 58.898438 505.464844 58.988281 505.898438 C 59.023438 506.070312 60.503906 507.21875 60.554688 507.460938 C 61.085938 509.972656 58.261719 513.898438 55.632812 514.289062 C 53.667969 514.582031 50.960938 512.730469 48.847656 510.460938 C 47.863281 509.402344 46.410156 507.871094 44.902344 504.679688 C 44.8125 504.488281 44.542969 503.785156 44.222656 502.933594 C 44.207031 502.921875 44.183594 502.890625 44.15625 502.835938 C 43.945312 502.460938 43.753906 502.066406 43.539062 501.902344 C 42.003906 500.714844 40.8125 502.203125 41.160156 503.472656 C 41.34375 504.144531 42.074219 506.003906 42.136719 506.152344 C 43.488281 509.414062 43.648438 511.527344 43.773438 512.976562 C 44.042969 516.082031 43.605469 519.355469 42.082031 520.640625 C 40.042969 522.363281 35.417969 521.949219 33.921875 519.875 C 33.777344 519.675781 33.757812 517.722656 33.65625 517.578125 C 33.394531 517.222656 32.496094 516.289062 31.71875 515.515625 C 29.589844 513.382812 27.566406 511.054688 26.234375 508.332031 C 25.316406 506.453125 23.300781 501.9375 24.722656 498.746094 C 26.109375 495.628906 31.347656 497.765625 33.507812 499.328125 C 34.421875 499.992188 36.894531 502.042969 37.074219 502.25 C 37.128906 502.316406 37.828125 501.480469 38.460938 501.09375 C 40.824219 499.644531 42.234375 499.125 42.808594 498.957031 " fill-opacity="1" fill-rule="evenodd"/><path fill="#292d3e" d="M 49.113281 516.574219 C 48.957031 516.976562 48.730469 517.515625 47.773438 517.386719 C 46.757812 517.253906 44.875 516.832031 45.351562 515.53125 C 45.730469 514.507812 47.148438 513.832031 48.132812 513.6875 C 48.523438 513.632812 49.148438 513.582031 49.398438 513.972656 C 49.855469 514.679688 49.40625 515.808594 49.113281 516.574219 " fill-opacity="1" fill-rule="evenodd"/><path fill="#292d3e" d="M 49.054688 518.242188 C 49.039062 518.582031 48.945312 518.980469 48.691406 519.425781 C 47.796875 520.996094 45.902344 520.652344 45.824219 520.640625 C 45.683594 520.621094 45.585938 520.488281 45.605469 520.347656 C 45.625 520.207031 45.757812 520.109375 45.894531 520.128906 C 45.960938 520.136719 47.519531 520.449219 48.246094 519.167969 C 48.835938 518.136719 48.367188 517.414062 48.300781 517.21875 C 48.289062 517.183594 48.640625 516.714844 48.789062 517.054688 C 48.847656 517.1875 49.1875 517.925781 49.925781 518.140625 C 50.917969 518.433594 52.09375 517.886719 52.300781 516.753906 C 52.328125 516.613281 52.460938 516.519531 52.597656 516.546875 C 52.738281 516.574219 52.832031 516.707031 52.804688 516.847656 C 52.539062 518.296875 51.050781 519.011719 49.78125 518.636719 C 49.496094 518.554688 49.253906 518.410156 49.054688 518.242188 " fill-opacity="1" fill-rule="evenodd"/><path fill="#292d3e" d="M 40.925781 512.316406 C 41.871094 512.316406 42.636719 513.113281 42.636719 514.089844 C 42.636719 515.070312 41.871094 515.863281 40.925781 515.863281 C 39.980469 515.863281 39.214844 515.070312 39.214844 514.089844 C 39.214844 513.113281 39.980469 512.316406 40.925781 512.316406 " fill-opacity="1" fill-rule="evenodd"/><path fill="#ffffff" d="M 41.3125 512.851562 C 41.570312 512.851562 41.78125 513.0625 41.78125 513.316406 C 41.78125 513.578125 41.570312 513.785156 41.3125 513.785156 C 41.054688 513.785156 40.84375 513.578125 40.84375 513.316406 C 40.84375 513.0625 41.054688 512.851562 41.3125 512.851562 " fill-opacity="1" fill-rule="evenodd"/><path fill="#ffffff" d="M 39.636719 513.835938 C 39.613281 514.601562 39.929688 515.066406 40.574219 515.253906 C 40.765625 515.308594 41.261719 515.285156 41.507812 515.136719 C 41.695312 515.019531 41.699219 514.898438 41.640625 514.820312 C 41.601562 514.765625 41.503906 514.738281 41.40625 514.777344 C 41.320312 514.816406 41.1875 514.84375 41.046875 514.855469 C 40.867188 514.871094 40.660156 514.851562 40.414062 514.710938 C 40.113281 514.539062 40.054688 514.070312 40.027344 513.789062 C 40.023438 513.742188 40 513.453125 39.8125 513.496094 C 39.683594 513.527344 39.640625 513.691406 39.636719 513.835938 " fill-opacity="1" fill-rule="evenodd"/><path fill="#292d3e" d="M 51.136719 507.683594 C 52.082031 507.683594 52.847656 508.476562 52.847656 509.457031 C 52.847656 510.433594 52.082031 511.230469 51.136719 511.230469 C 50.191406 511.230469 49.425781 510.433594 49.425781 509.457031 C 49.425781 508.476562 50.191406 507.683594 51.136719 507.683594 " fill-opacity="1" fill-rule="evenodd"/><path fill="#ffffff" d="M 51.523438 508.214844 C 51.78125 508.214844 51.988281 508.425781 51.988281 508.683594 C 51.988281 508.941406 51.78125 509.148438 51.523438 509.148438 C 51.265625 509.148438 51.054688 508.941406 51.054688 508.683594 C 51.054688 508.425781 51.265625 508.214844 51.523438 508.214844 " fill-opacity="1" fill-rule="evenodd"/><path fill="#ffffff" d="M 49.84375 509.203125 C 49.820312 509.964844 50.140625 510.429688 50.785156 510.617188 C 50.972656 510.675781 51.46875 510.648438 51.714844 510.5 C 51.90625 510.382812 51.90625 510.265625 51.847656 510.183594 C 51.808594 510.128906 51.714844 510.101562 51.613281 510.144531 C 51.527344 510.179688 51.398438 510.207031 51.253906 510.21875 C 51.074219 510.238281 50.867188 510.214844 50.625 510.074219 C 50.324219 509.902344 50.265625 509.433594 50.238281 509.15625 C 50.230469 509.105469 50.207031 508.816406 50.023438 508.859375 C 49.894531 508.890625 49.851562 509.054688 49.84375 509.203125 " fill-opacity="1" fill-rule="evenodd"/><path fill="#fbb0a2" d="M 33.894531 514.425781 C 33.425781 514.59375 32.640625 513.648438 32.371094 513.394531 C 31.582031 512.664062 30.894531 511.847656 30.246094 510.988281 C 28.4375 508.589844 26.914062 505.839844 26.195312 502.917969 C 25.914062 501.761719 25.761719 499.90625 27.089844 499.304688 C 29.808594 498.078125 33.632812 501.878906 35.1875 503.730469 C 35.726562 504.371094 36.644531 505.453125 36.6875 506.363281 C 36.726562 507.328125 35.453125 505.515625 35.109375 505.917969 C 34.621094 506.492188 36.199219 508.339844 35.792969 509.078125 C 35.445312 509.710938 34.753906 508.550781 34.621094 509.132812 C 34.363281 510.257812 34.3125 511.894531 34.277344 512.976562 C 34.265625 513.371094 34.386719 514.25 33.894531 514.425781 " fill-opacity="1" fill-rule="evenodd"/><path fill="#fbb0a2" d="M 55.90625 503.84375 C 56.34375 503.632812 56.214844 502.441406 56.226562 502.082031 C 56.253906 501.03125 56.152344 499.996094 56 498.953125 C 55.566406 496.054688 54.695312 493.113281 53.164062 490.613281 C 52.558594 489.625 51.378906 488.246094 50.066406 488.757812 C 47.382812 489.808594 47.421875 495.070312 47.652344 497.417969 C 47.730469 498.230469 47.855469 499.613281 48.457031 500.261719 C 49.097656 500.953125 48.703125 498.828125 49.214844 498.863281 C 49.941406 498.914062 50.152344 501.277344 50.9375 501.5 C 51.605469 501.691406 51.269531 500.417969 51.765625 500.722656 C 52.710938 501.316406 53.878906 502.402344 54.648438 503.117188 C 54.929688 503.382812 55.453125 504.066406 55.90625 503.84375 " fill-opacity="1" fill-rule="evenodd"/><path fill="#fdc175" d="M 36.359375 524.898438 C 35.394531 526.558594 33.835938 529.941406 33.078125 531.566406 C 30.863281 536.316406 28.886719 541.265625 28.527344 546.550781 C 28.269531 550.320312 28.921875 554.632812 31.402344 556.558594 C 32.453125 557.375 34.296875 557.582031 35.988281 557.480469 C 37.910156 557.363281 39.058594 557.765625 40.132812 557.351562 C 40.164062 557.339844 39.5 555.382812 39.652344 554.933594 C 39.914062 554.167969 41.023438 553.699219 41.6875 553.484375 C 43.566406 552.871094 45.109375 552.9375 46.808594 553.269531 C 46.96875 553.300781 48.515625 553.738281 48.613281 553.597656 C 49.203125 552.742188 49.417969 550.027344 49.425781 549.058594 C 49.480469 543.035156 48.714844 542.589844 46.117188 538.863281 C 45.597656 538.121094 44.921875 535.925781 44.199219 535.421875 C 43.457031 534.90625 43.839844 537.730469 43.148438 537.21875 C 42.203125 536.515625 41.460938 534.8125 41.40625 533.707031 C 41.367188 532.9375 41.460938 532.296875 41.375 532.199219 C 41.105469 531.882812 40.574219 533.160156 40.5 533.84375 C 40.433594 534.46875 40.132812 534.675781 39.730469 534.246094 C 37.074219 531.398438 38.210938 526.40625 38.007812 526.027344 C 37.765625 525.566406 37.050781 525.140625 36.359375 524.898438 " fill-opacity="1" fill-rule="evenodd"/><path fill="#d37a6e" d="M 36.28125 506.339844 C 36.285156 506.332031 36.289062 506.324219 36.292969 506.320312 C 36.386719 506.148438 36.347656 505.933594 36.277344 505.722656 C 36.140625 505.328125 35.859375 504.9375 35.683594 504.730469 C 34.941406 503.875 33.234375 501.90625 31.277344 500.628906 C 30.015625 499.808594 28.648438 499.265625 27.375 499.542969 C 26.808594 499.667969 26.496094 500.105469 26.34375 500.628906 C 26.179688 501.199219 26.203125 501.871094 26.339844 502.40625 C 27.035156 505.1875 28.832031 508.214844 30.382812 510.582031 C 30.460938 510.699219 30.429688 510.859375 30.3125 510.9375 C 30.195312 511.019531 30.035156 510.984375 29.957031 510.867188 C 28.375 508.457031 26.550781 505.367188 25.839844 502.535156 C 25.652344 501.789062 25.660156 500.816406 26 500.09375 C 26.242188 499.570312 26.648438 499.171875 27.265625 499.039062 C 28.664062 498.730469 30.171875 499.292969 31.554688 500.195312 C 33.558594 501.503906 35.308594 503.511719 36.066406 504.390625 C 36.277344 504.632812 36.601562 505.089844 36.761719 505.550781 C 36.882812 505.910156 36.902344 506.273438 36.746094 506.566406 C 36.628906 506.78125 36.484375 506.855469 36.347656 506.871094 C 36.1875 506.886719 35.992188 506.792969 35.800781 506.628906 C 35.683594 506.527344 35.558594 506.398438 35.429688 506.316406 C 35.382812 506.28125 35.339844 506.25 35.292969 506.253906 C 35.25 506.257812 35.226562 506.296875 35.1875 506.355469 C 35.1875 506.359375 35.183594 506.378906 35.1875 506.390625 C 35.1875 506.429688 35.199219 506.46875 35.210938 506.511719 C 35.257812 506.65625 35.335938 506.828125 35.429688 507.007812 C 35.617188 507.378906 35.847656 507.800781 35.96875 508.1875 C 36.0625 508.496094 36.085938 508.785156 36.007812 509.03125 C 35.902344 509.355469 35.652344 509.433594 35.339844 509.394531 C 35.207031 509.378906 35.058594 509.339844 34.925781 509.324219 C 34.898438 509.324219 34.875 509.320312 34.851562 509.320312 C 34.839844 509.320312 34.824219 509.324219 34.820312 509.328125 C 34.75 509.410156 34.699219 509.535156 34.65625 509.683594 C 34.582031 509.957031 34.539062 510.304688 34.511719 510.683594 C 34.445312 511.679688 34.503906 512.859375 34.433594 513.441406 C 34.394531 513.734375 34.320312 514.035156 34.191406 514.234375 C 34.066406 514.417969 33.902344 514.53125 33.683594 514.550781 C 33.503906 514.5625 33.277344 514.503906 32.996094 514.308594 C 32.660156 514.074219 32.21875 513.625 31.644531 512.851562 C 31.558594 512.738281 31.582031 512.574219 31.695312 512.488281 C 31.804688 512.402344 31.96875 512.425781 32.050781 512.542969 C 32.578125 513.25 32.980469 513.667969 33.289062 513.882812 C 33.386719 513.953125 33.476562 514 33.550781 514.019531 C 33.613281 514.039062 33.664062 514.039062 33.699219 514.011719 C 33.765625 513.972656 33.800781 513.890625 33.832031 513.804688 C 33.878906 513.675781 33.90625 513.527344 33.921875 513.378906 C 34.007812 512.703125 33.914062 511.214844 34.046875 510.15625 C 34.113281 509.636719 34.238281 509.214844 34.433594 508.984375 C 34.511719 508.890625 34.613281 508.835938 34.734375 508.8125 C 34.851562 508.792969 34.992188 508.808594 35.136719 508.835938 C 35.238281 508.851562 35.34375 508.878906 35.4375 508.886719 C 35.457031 508.886719 35.476562 508.886719 35.492188 508.886719 C 35.503906 508.882812 35.515625 508.882812 35.519531 508.871094 C 35.570312 508.714844 35.535156 508.535156 35.476562 508.34375 C 35.367188 507.980469 35.148438 507.589844 34.972656 507.246094 C 34.839844 506.980469 34.734375 506.742188 34.691406 506.550781 C 34.652344 506.351562 34.679688 506.191406 34.757812 506.070312 C 34.882812 505.882812 35.019531 505.792969 35.148438 505.757812 C 35.28125 505.71875 35.417969 505.734375 35.554688 505.792969 C 35.695312 505.855469 35.839844 505.972656 35.976562 506.09375 C 36.050781 506.164062 36.128906 506.234375 36.199219 506.289062 C 36.222656 506.308594 36.257812 506.328125 36.28125 506.339844 " fill-opacity="1" fill-rule="evenodd"/><path fill="#d37a6e" d="M 50.949219 501.246094 C 50.960938 501.234375 50.976562 501.210938 50.988281 501.195312 C 51.019531 501.144531 51.050781 501.089844 51.085938 501.03125 C 51.195312 500.859375 51.347656 500.683594 51.625 500.582031 C 51.738281 500.539062 51.871094 500.53125 52.027344 500.566406 C 52.195312 500.609375 52.394531 500.703125 52.609375 500.839844 C 53.359375 501.316406 54.335938 502.324219 54.824219 502.921875 C 54.960938 503.089844 55.222656 503.371094 55.492188 503.5 C 55.601562 503.554688 55.710938 503.589844 55.800781 503.515625 C 55.828125 503.488281 55.839844 503.4375 55.859375 503.378906 C 55.90625 503.210938 55.933594 502.976562 55.941406 502.710938 C 55.988281 501.585938 55.777344 499.886719 55.722656 499.472656 C 55.375 496.804688 54.886719 495.160156 53.761719 492.25 C 53.515625 491.617188 53.09375 490.796875 52.546875 490.152344 C 52.199219 489.742188 51.800781 489.402344 51.359375 489.238281 C 50.714844 489 50.179688 489.019531 49.742188 489.234375 C 49.296875 489.449219 48.957031 489.859375 48.691406 490.375 C 48.117188 491.480469 47.898438 493.046875 47.867188 494.375 C 47.863281 494.515625 47.746094 494.628906 47.605469 494.625 C 47.464844 494.625 47.351562 494.503906 47.355469 494.363281 C 47.386719 492.957031 47.632812 491.300781 48.234375 490.136719 C 48.558594 489.515625 48.980469 489.027344 49.519531 488.765625 C 50.066406 488.5 50.730469 488.457031 51.535156 488.753906 C 52.054688 488.945312 52.527344 489.332031 52.933594 489.816406 C 53.523438 490.503906 53.976562 491.382812 54.238281 492.0625 C 55.382812 495.023438 55.878906 496.691406 56.230469 499.40625 C 56.285156 499.828125 56.503906 501.578125 56.457031 502.730469 C 56.441406 503.050781 56.410156 503.324219 56.351562 503.523438 C 56.296875 503.707031 56.214844 503.839844 56.125 503.914062 C 55.875 504.121094 55.574219 504.113281 55.273438 503.96875 C 54.933594 503.808594 54.597656 503.460938 54.429688 503.25 C 53.96875 502.683594 53.046875 501.726562 52.339844 501.277344 C 52.203125 501.191406 52.078125 501.125 51.964844 501.089844 C 51.902344 501.066406 51.847656 501.050781 51.804688 501.066406 C 51.550781 501.160156 51.488281 501.367188 51.40625 501.496094 C 51.328125 501.609375 51.242188 501.691406 51.132812 501.734375 C 51.050781 501.765625 50.957031 501.777344 50.839844 501.75 C 50.695312 501.71875 50.53125 501.589844 50.378906 501.363281 C 50.132812 500.992188 49.871094 500.339844 49.628906 499.808594 C 49.519531 499.578125 49.417969 499.371094 49.320312 499.234375 L 49.316406 499.226562 C 49.292969 499.339844 49.28125 499.476562 49.265625 499.609375 C 49.238281 499.835938 49.195312 500.058594 49.109375 500.214844 C 49.023438 500.371094 48.894531 500.476562 48.722656 500.515625 C 48.582031 500.546875 48.417969 500.507812 48.261719 500.382812 C 48.027344 500.195312 47.777344 499.777344 47.671875 499.242188 C 47.644531 499.101562 47.734375 498.964844 47.871094 498.9375 C 48.007812 498.90625 48.144531 499 48.171875 499.136719 C 48.242188 499.476562 48.375 499.761719 48.523438 499.921875 C 48.554688 499.957031 48.609375 499.992188 48.625 500.003906 C 48.671875 499.984375 48.683594 499.925781 48.699219 499.863281 C 48.746094 499.714844 48.757812 499.53125 48.777344 499.363281 C 48.800781 499.1875 48.828125 499.023438 48.878906 498.910156 C 48.941406 498.773438 49.03125 498.6875 49.144531 498.644531 C 49.253906 498.601562 49.371094 498.613281 49.492188 498.683594 C 49.621094 498.761719 49.773438 498.957031 49.917969 499.234375 C 50.148438 499.671875 50.398438 500.328125 50.644531 500.796875 C 50.71875 500.941406 50.789062 501.0625 50.859375 501.152344 C 50.890625 501.191406 50.941406 501.234375 50.949219 501.246094 " fill-opacity="1" fill-rule="evenodd"/><path fill="#ead2c1" d="M 47.121094 526.167969 C 47.726562 526.152344 48.324219 526.105469 48.925781 526.054688 C 50.054688 525.960938 52.570312 525.539062 54.277344 524.824219 C 54.410156 524.769531 54.46875 524.621094 54.414062 524.488281 C 54.363281 524.355469 54.210938 524.292969 54.082031 524.347656 C 52.425781 525.042969 49.980469 525.445312 48.882812 525.539062 C 48.292969 525.585938 47.699219 525.632812 47.105469 525.652344 C 46.964844 525.65625 46.855469 525.773438 46.859375 525.917969 C 46.863281 526.0625 46.980469 526.175781 47.121094 526.167969 " fill-opacity="1" fill-rule="evenodd"/><path fill="#ead2c1" d="M 57.457031 523.277344 C 57.753906 523.125 58.050781 522.96875 58.339844 522.792969 C 59.089844 522.335938 59.875 521.773438 60.445312 521.089844 C 60.535156 520.980469 60.519531 520.820312 60.414062 520.726562 C 60.304688 520.632812 60.144531 520.648438 60.050781 520.757812 C 59.515625 521.398438 58.777344 521.921875 58.074219 522.347656 C 57.796875 522.519531 57.507812 522.667969 57.222656 522.820312 C 57.097656 522.882812 57.046875 523.042969 57.113281 523.167969 C 57.175781 523.296875 57.332031 523.34375 57.457031 523.277344 " fill-opacity="1" fill-rule="evenodd"/><path fill="#b96f30" d="M 36.355469 544.671875 C 36.992188 547.152344 38.359375 552.125 39.226562 554.527344 C 39.277344 554.660156 39.421875 554.730469 39.554688 554.683594 C 39.6875 554.632812 39.757812 554.484375 39.707031 554.347656 C 38.84375 551.960938 37.484375 547.011719 36.851562 544.539062 C 36.816406 544.402344 36.675781 544.320312 36.539062 544.355469 C 36.402344 544.390625 36.320312 544.53125 36.355469 544.671875 " fill-opacity="1" fill-rule="evenodd"/><path fill="#fdc175" d="M 63.34375 551.203125 C 63.289062 551.238281 61.667969 550.863281 59.96875 551.179688 C 57.882812 551.574219 55.675781 553.007812 55.691406 552.949219 C 55.738281 552.75 55.90625 550.953125 56.0625 550.339844 C 56.265625 549.539062 56.640625 548.253906 57.085938 547.53125 C 57.570312 546.746094 58.445312 545.933594 59 545.121094 C 59.929688 543.765625 60.101562 541.757812 60.226562 540.328125 C 60.230469 540.265625 60.578125 541.046875 60.640625 541.070312 C 60.808594 541.136719 61.867188 539.515625 62.128906 537.917969 C 62.152344 537.765625 62.207031 536.90625 62.238281 536.894531 C 62.464844 536.816406 62.753906 537.703125 62.894531 537.605469 C 63.105469 537.457031 63.371094 536.796875 63.46875 536.117188 C 63.566406 535.398438 63.625 534.835938 63.679688 534.851562 C 64.144531 534.992188 64.152344 536.019531 64.199219 536.382812 C 64.4375 538.304688 64.351562 540.257812 64.257812 542.183594 C 64.148438 544.507812 63.734375 546.777344 63.476562 549.085938 C 63.453125 549.269531 63.367188 551.183594 63.34375 551.203125 " fill-opacity="1" fill-rule="evenodd"/><path fill="#ead2c1" d="M 48.496094 553.960938 C 48.75 554.464844 49.070312 555.191406 49.3125 556.113281 C 49.335938 556.203125 49.429688 556.257812 49.519531 556.234375 C 49.605469 556.210938 49.660156 556.117188 49.636719 556.027344 C 49.386719 555.078125 49.054688 554.328125 48.792969 553.808594 C 48.75 553.722656 48.652344 553.691406 48.570312 553.734375 C 48.488281 553.777344 48.453125 553.878906 48.496094 553.960938 " fill-opacity="1" fill-rule="evenodd"/><path fill="#ead2c1" d="M 55.550781 553.136719 C 55.277344 553.6875 55.1875 554.464844 55.210938 555.507812 C 55.214844 555.601562 55.289062 555.675781 55.382812 555.671875 C 55.472656 555.671875 55.546875 555.59375 55.546875 555.5 C 55.523438 554.527344 55.59375 553.800781 55.847656 553.289062 C 55.890625 553.207031 55.859375 553.105469 55.773438 553.0625 C 55.691406 553.019531 55.59375 553.054688 55.550781 553.136719 " fill-opacity="1" fill-rule="evenodd"/></svg>